<svg class="dc-svg" width="40" height="40" viewBox="0 0 30 30" fill="#FFFFFF" xmlns="http://www.w3.org/2000/svg">
<path d="M28.25 15C28.25 22.3175 22.3186 28.25 15 28.25V29.75C23.1471 29.75 29.75 23.1458 29.75 15H28.25ZM15 28.25C7.68139 28.25 1.75 22.3175 1.75 15H0.25C0.25 23.1458 6.85287 29.75 15 29.75V28.25ZM1.75 15C1.75 7.68252 7.68139 1.75 15 1.75V0.25C6.85287 0.25 0.25 6.85418 0.25 15H1.75ZM15 1.75C22.3186 1.75 28.25 7.68252 28.25 15H29.75C29.75 6.85418 23.1471 0.25 15 0.25V1.75ZM7.26459 19.9895C9.26409 19.5021 11.7187 19.2898 14.1328 19.527C16.5516 19.7647 18.8738 20.4477 20.6556 21.7005L21.5183 20.4734C19.458 19.0248 16.8601 18.2878 14.2794 18.0342C11.694 17.7802 9.06965 18.0056 6.90932 18.5322L7.26459 19.9895ZM6.60892 15.7386C13.534 14.5134 18.4175 15.1309 22.4757 18.0441L23.3504 16.8255C18.8308 13.5811 13.4737 13.0008 6.3476 14.2615L6.60892 15.7386ZM6.11942 11.4463C8.86216 10.4773 12.198 10.0773 15.4714 10.3453C18.7474 10.6136 21.9039 11.5461 24.3177 13.1857L25.1605 11.9448C22.4772 10.1221 19.0518 9.13354 15.5938 8.85035C12.1332 8.56694 8.58288 8.98505 5.61971 10.032L6.11942 11.4463Z" fill="#222222"></path>
</svg>