<svg class="dc-svg" width="40" height="40" viewBox="0 0 30 30" fill="none" xmlns="http://www.w3.org/2000/svg">
<path d="M9.49096 26C19.6797 26 25.2525 17.5352 25.2525 10.1946C25.2525 9.95416 25.2525 9.71482 25.2363 9.47655C26.3204 8.69019 27.2563 7.71654 28 6.60117C26.9891 7.05062 25.9165 7.34523 24.8183 7.47515C25.9748 6.781 26.8403 5.68908 27.2537 4.40266C26.1664 5.04977 24.9767 5.50578 23.7362 5.75101C22.901 4.86043 21.7963 4.27072 20.5932 4.07312C19.3901 3.87552 18.1556 4.08105 17.0807 4.65791C16.0058 5.23476 15.1505 6.15079 14.6471 7.26423C14.1437 8.37766 14.0202 9.62644 14.2959 10.8173C12.0935 10.7065 9.93898 10.1326 7.97214 9.1327C6.0053 8.13283 4.27011 6.72939 2.8792 5.01348C2.17082 6.23637 1.95386 7.68403 2.27249 9.0617C2.59112 10.4394 3.42138 11.6435 4.59424 12.4288C3.71264 12.4029 2.85023 12.1644 2.08 11.7335V11.8039C2.08035 13.0865 2.52308 14.3294 3.3331 15.3219C4.14313 16.3144 5.27057 16.9953 6.5242 17.2493C5.70867 17.4724 4.85298 17.505 4.02292 17.3446C4.37704 18.4483 5.06623 19.4134 5.99414 20.1051C6.92206 20.7967 8.0423 21.1803 9.19828 21.2023C8.04974 22.1076 6.73448 22.7769 5.32773 23.172C3.92099 23.5671 2.45037 23.6802 1 23.5048C3.53331 25.1349 6.48091 25.9996 9.49096 25.9957" stroke="#222222" stroke-width="2" stroke-linejoin="round"></path>
</svg>